# xmcd
# 
# Track frame offsets:
#     150
#     14539
#     27925
#     39966
#     52638
#     66550
#     78590
#     90600
#     102685
#     115715
#     131751
#     149010
#     163674
#     175085
#     188425
#     204203
#     217776
# 
# Disc length: 3082
# 
# Revision: 5
# Processed by: cddbd v1.5.2PL0 Copyright (c) Steve Scherf et al.
# Submitted via: BonkEnc v1.0.6
# 
DISCID=e30c0811
DTITLE=Teodoro and Sampaio - Mulher de Peão - Disc 1
DYEAR=2002
DGENRE=Country
TTITLE0=Se a casa cair
TTITLE1=Doidão por você
TTITLE2=Chorar por amor nunca mais
TTITLE3=Cantaram a minha vizinha
TTITLE4=Besta de paixão
TTITLE5=Garanhão da madrugada
TTITLE6=Aqui pra ela
TTITLE7=Mulher de peão
TTITLE8=Será que vai chover?
TTITLE9=Cowboy conquistador
TTITLE10=Coração sem dono
TTITLE11=Vacina de amor
TTITLE12=Agarradinho
TTITLE13=O mala
TTITLE14=Uma semana de fogo
TTITLE15=Bebendo com os amigos
TTITLE16=Desafio de roqueiro
EXTD=
EXTT0=
EXTT1=
EXTT2=
EXTT3=
EXTT4=
EXTT5=
EXTT6=
EXTT7=
EXTT8=
EXTT9=
EXTT10=
EXTT11=
EXTT12=
EXTT13=
EXTT14=
EXTT15=
EXTT16=
PLAYORDER=
